<svg id="arrow-left-circle" xmlns="http://www.w3.org/2000/svg" width="39" height="39" viewBox="0 0 39 39">
  <path id="Path_15" data-name="Path 15" d="M19.5,36.563A17.063,17.063,0,1,0,2.438,19.5,17.062,17.062,0,0,0,19.5,36.563ZM19.5,39A19.5,19.5,0,1,0,0,19.5,19.5,19.5,0,0,0,19.5,39Z" fill="#ff2d6b" fill-rule="evenodd"/>
  <path id="Path_16" data-name="Path 16" d="M19.539,27.675a1.324,1.324,0,0,0,0-1.813l-6.465-6.775,6.466-6.776a1.326,1.326,0,0,0,0-1.813,1.184,1.184,0,0,0-1.73,0L10.482,18.18a1.324,1.324,0,0,0,0,1.813l7.328,7.682a1.182,1.182,0,0,0,1.73,0Z" transform="translate(0.836 0.413)" fill="#ff2d6b" fill-rule="evenodd"/>
  <path id="Path_17" data-name="Path 17" d="M27.032,18.155a1.252,1.252,0,0,0-1.221-1.28H13.6a1.282,1.282,0,0,0,0,2.561H25.81A1.252,1.252,0,0,0,27.032,18.155Z" transform="translate(1.014 1.345)" fill="#ff2d6b" fill-rule="evenodd"/>
</svg>
