<svg xmlns="http://www.w3.org/2000/svg" width="26.358" height="26.999" viewBox="0 0 26.358 26.999">
  <path id="settings" d="M23.186,15.079,26.038,17.3a.67.67,0,0,1,.19.887L23.5,22.875a.554.554,0,0,1-.824.253L19.32,21.8a12.787,12.787,0,0,1-2.281,1.331l-.507,3.549a.605.605,0,0,1-.7.57H10.448a.652.652,0,0,1-.7-.57l-.507-3.549A10.4,10.4,0,0,1,6.962,21.8L3.6,23.128a.617.617,0,0,1-.824-.253L.054,18.184a.67.67,0,0,1,.19-.887L3.1,15.079q-.063-.76-.063-1.331T3.1,12.417L.244,10.2a.67.67,0,0,1-.19-.887l2.725-4.69A.572.572,0,0,1,3.6,4.369L6.962,5.7A12.787,12.787,0,0,1,9.243,4.369L9.75.819a.652.652,0,0,1,.7-.57h5.387a.606.606,0,0,1,.7.57l.507,3.549A10.4,10.4,0,0,1,19.32,5.7l3.359-1.331a.617.617,0,0,1,.824.253l2.725,4.69a.67.67,0,0,1-.19.887l-2.852,2.218a8.213,8.213,0,0,1,.127,1.331A8.213,8.213,0,0,1,23.186,15.079ZM13.141,18.5a4.542,4.542,0,0,0,3.327-1.394,4.578,4.578,0,0,0,1.394-3.359,4.578,4.578,0,0,0-1.394-3.359,4.668,4.668,0,0,0-6.654,0A4.578,4.578,0,0,0,8.42,13.749a4.578,4.578,0,0,0,1.394,3.359A4.542,4.542,0,0,0,13.141,18.5Z" transform="translate(0.038 -0.249)" fill="#fffaff"/>
</svg>
