<svg xmlns="http://www.w3.org/2000/svg" xmlns:xlink="http://www.w3.org/1999/xlink" width="873.96" height="157.08" viewBox="0 0 873.96 157.08">
  <defs>
    <clipPath id="clip-path">
      <rect id="Rectangle_66" data-name="Rectangle 66" width="183.897" height="153.914" fill="#fffaff"/>
    </clipPath>
  </defs>
  <g id="Group_374" data-name="Group 374" transform="translate(-172 -329.86)">
    <path id="Path_187" data-name="Path 187" d="M24.78-133.56q20.58-20.58,57.75-20.58,36.54,0,57.54,21.21t21,57.12q0,35.91-21,57.225T82.53,2.73q-35.91,0-57.12-21.21T4.2-75.6Q4.2-112.77,24.78-133.56ZM62.16-48.72q6.72,10.08,20.37,10.08,13.44,0,20.37-10.29t6.93-27.09q0-16.8-6.72-26.775T82.53-112.77q-27.09,0-27.09,36.96Q55.44-58.8,62.16-48.72Zm127.89-84.84q20.58-20.58,57.75-20.58,36.54,0,57.54,21.21t21,57.12q0,35.91-21,57.225T247.8,2.73q-35.91,0-57.12-21.21T169.47-75.6Q169.47-112.77,190.05-133.56Zm37.38,84.84q6.72,10.08,20.37,10.08,13.44,0,20.37-10.29t6.93-27.09q0-16.8-6.72-26.775T247.8-112.77q-27.09,0-27.09,36.96Q220.71-58.8,227.43-48.72ZM334.74-75.6q0-36.12,20.685-57.33t56.8-21.21q30.45,0,50.085,15.015t24.045,44.2H435.12q-4.62-17.43-21.84-17.43-27.3,0-27.3,37.8,0,38.01,28.14,38.01,19.53,0,25.62-14.49h-31.5V-85.26h78.33V0H451.5V-17.85Q437.85,2.94,409.08,2.94q-33.18,0-53.76-21T334.74-75.6ZM554.61,0h-50.4V-151.2h50.4Zm19.32-151.2H685.86v37.8H623.07v19.32h58.59v36.54H623.07V-37.8h64.89V0H573.93Z" transform="translate(358 484)" fill="#fffaff"/>
    <g id="Group_84" data-name="Group 84" transform="translate(172 332.442)">
      <g id="Group_83" data-name="Group 83" clip-path="url(#clip-path)">
        <path id="Path_40" data-name="Path 40" d="M199.4,106.9q0,22.942-14.446,33.771-14.438,10.846-45.513,10.842H76.294V0h67.728q27.083,0,38.342,8.839t11.259,26.726q0,27.564-23.7,35.985,14.534,2.942,22.008,11.153t7.474,24.2" transform="translate(-15.503)" fill="#fffaff"/>
        <path id="Path_41" data-name="Path 41" d="M54.08,143.541c0,15.776-12.107,28.566-27.04,28.566S0,159.317,0,143.541s12.106-28.566,27.04-28.566,27.04,12.79,27.04,28.566" transform="translate(0 -18.193)" fill="#fffaff"/>
      </g>
    </g>
  </g>
</svg>
