<?xml version="1.0" encoding="UTF-8"?><svg id="a" xmlns="http://www.w3.org/2000/svg" viewBox="0 0 144 144"><path d="M72,0C32.24,0,0,32.23,0,72s32.24,72,72,72,72-32.23,72-72S111.78,0,72,0h0Zm33.02,103.85c-1.29,2.11-4.06,2.78-6.17,1.49-16.91-10.33-38.19-12.66-63.25-6.94-2.42,.55-4.82-.96-5.38-3.38s.96-4.82,3.37-5.38c27.43-6.27,50.96-3.57,69.93,8.03,2.11,1.3,2.78,4.06,1.49,6.17h0Zm8.81-19.61c-1.63,2.64-5.08,3.47-7.72,1.85-19.35-11.9-48.85-15.34-71.75-8.39-2.97,.9-6.1-.77-7-3.74-.89-2.97,.78-6.1,3.74-7,26.15-7.94,58.66-4.09,80.89,9.57,2.64,1.63,3.47,5.08,1.85,7.72h0Zm.75-20.42c-23.21-13.78-61.5-15.05-83.65-8.32-3.56,1.08-7.32-.93-8.4-4.48-1.08-3.56,.93-7.32,4.49-8.4,25.43-7.72,67.72-6.23,94.43,9.63,3.21,1.9,4.25,6.04,2.35,9.23-1.89,3.2-6.04,4.25-9.23,2.35h0Z" style="fill:#FFFAFF;"/></svg>